<mxfile host="app.diagrams.net" modified="2023-10-22T13:13:32.981Z" agent="Mozilla/5.0 (Windows NT 10.0; Win64; x64) AppleWebKit/537.36 (KHTML, like Gecko) Chrome/118.0.0.0 Safari/537.36 Edg/118.0.2088.57" etag="nYtoojDEwe0TJzySUU7j" version="22.0.6" type="device">
  <diagram name="Page-1" id="c7558073-3199-34d8-9f00-42111426c3f3">
    <mxGraphModel dx="979" dy="566" grid="1" gridSize="10" guides="1" tooltips="1" connect="1" arrows="1" fold="1" page="1" pageScale="1" pageWidth="826" pageHeight="1169" background="none" math="0" shadow="0">
      <root>
        <mxCell id="0" />
        <mxCell id="1" parent="0" />
        <mxCell id="2" value="&lt;p style=&quot;margin: 0px; margin-top: 4px; text-align: center; text-decoration: underline;&quot;&gt;&lt;strong&gt;Process 1&lt;br&gt;&lt;/strong&gt;&lt;/p&gt;&lt;hr&gt;&lt;p style=&quot;margin: 0px; margin-left: 8px;&quot;&gt;Progress&lt;/p&gt;&lt;p style=&quot;margin: 0px; margin-left: 8px;&quot;&gt;Tracking&lt;/p&gt;" style="verticalAlign=middle;align=center;overflow=fill;fontSize=12;fontFamily=Helvetica;html=1;rounded=1;fontStyle=1;strokeWidth=3;fillColor=#E6FFCC" parent="1" vertex="1">
          <mxGeometry x="236" y="236" width="110" height="90" as="geometry" />
        </mxCell>
        <mxCell id="3" value="EXPERT" style="whiteSpace=wrap;align=center;verticalAlign=middle;fontStyle=1;strokeWidth=3;fillColor=#FFFFCC" parent="1" vertex="1">
          <mxGeometry x="246" y="126" width="90" height="60" as="geometry" />
        </mxCell>
        <mxCell id="0EiWsD7YYBJB4MSZuBvv-81" style="edgeStyle=orthogonalEdgeStyle;rounded=0;orthogonalLoop=1;jettySize=auto;html=1;exitX=1;exitY=0.5;exitDx=0;exitDy=0;entryX=0;entryY=0.5;entryDx=0;entryDy=0;" edge="1" parent="1" source="4" target="2">
          <mxGeometry relative="1" as="geometry" />
        </mxCell>
        <mxCell id="0EiWsD7YYBJB4MSZuBvv-83" style="edgeStyle=orthogonalEdgeStyle;rounded=0;orthogonalLoop=1;jettySize=auto;html=1;exitX=1;exitY=0.5;exitDx=0;exitDy=0;entryX=0.5;entryY=0;entryDx=0;entryDy=0;" edge="1" parent="1" source="4" target="6">
          <mxGeometry relative="1" as="geometry">
            <Array as="points">
              <mxPoint x="130" y="216" />
              <mxPoint x="445" y="216" />
            </Array>
          </mxGeometry>
        </mxCell>
        <mxCell id="0EiWsD7YYBJB4MSZuBvv-87" style="edgeStyle=orthogonalEdgeStyle;rounded=0;orthogonalLoop=1;jettySize=auto;html=1;exitX=1;exitY=0.5;exitDx=0;exitDy=0;entryX=0.5;entryY=1;entryDx=0;entryDy=0;" edge="1" parent="1" source="4" target="8">
          <mxGeometry relative="1" as="geometry">
            <Array as="points">
              <mxPoint x="130" y="351" />
              <mxPoint x="615" y="351" />
            </Array>
          </mxGeometry>
        </mxCell>
        <mxCell id="4" value="USER" style="whiteSpace=wrap;align=center;verticalAlign=middle;fontStyle=1;strokeWidth=3;fillColor=#FFFFCC" parent="1" vertex="1">
          <mxGeometry x="40" y="251" width="90" height="60" as="geometry" />
        </mxCell>
        <mxCell id="5" value="CLOUD DATABASE" style="shape=process;whiteSpace=wrap;align=center;verticalAlign=middle;size=0.0475;fontStyle=1;strokeWidth=3;fillColor=#FFCCCC" parent="1" vertex="1">
          <mxGeometry x="200.99999999999991" y="391" width="400" height="50" as="geometry" />
        </mxCell>
        <mxCell id="6" value="&lt;p style=&quot;margin: 0px; margin-top: 4px; text-align: center; text-decoration: underline;&quot;&gt;&lt;strong&gt;Process 2&lt;br&gt;&lt;/strong&gt;&lt;/p&gt;&lt;hr&gt;&lt;p style=&quot;margin: 0px; margin-left: 8px;&quot;&gt;User&amp;nbsp;&lt;/p&gt;&lt;p style=&quot;margin: 0px; margin-left: 8px;&quot;&gt;Authentication&lt;/p&gt;" style="verticalAlign=middle;align=center;overflow=fill;fontSize=12;fontFamily=Helvetica;html=1;rounded=1;fontStyle=1;strokeWidth=3;fillColor=#E6FFCC" parent="1" vertex="1">
          <mxGeometry x="390" y="236" width="110" height="90" as="geometry" />
        </mxCell>
        <mxCell id="7" value="&lt;p style=&quot;margin: 0px; margin-top: 4px; text-align: center; text-decoration: underline;&quot;&gt;&lt;strong&gt;&lt;strong&gt;Process&lt;/strong&gt; 3&lt;br&gt;&lt;/strong&gt;&lt;/p&gt;&lt;hr&gt;&lt;p style=&quot;margin: 0px; margin-left: 8px;&quot;&gt;Admin&amp;nbsp;&lt;/p&gt;&lt;p style=&quot;margin: 0px; margin-left: 8px;&quot;&gt;Management&lt;/p&gt;" style="verticalAlign=middle;align=center;overflow=fill;fontSize=12;fontFamily=Helvetica;html=1;rounded=1;fontStyle=1;strokeWidth=3;fillColor=#E6FFCC" parent="1" vertex="1">
          <mxGeometry x="681" y="371" width="110" height="90" as="geometry" />
        </mxCell>
        <mxCell id="8" value="&lt;p style=&quot;margin: 0px; margin-top: 4px; text-align: center; text-decoration: underline;&quot;&gt;&lt;strong&gt;&lt;strong&gt;Process&lt;/strong&gt; 4&lt;br&gt;&lt;/strong&gt;&lt;/p&gt;&lt;hr&gt;&lt;p style=&quot;margin: 0px; margin-left: 8px;&quot;&gt;User&amp;nbsp;&lt;/p&gt;&lt;p style=&quot;margin: 0px; margin-left: 8px;&quot;&gt;Profile&amp;nbsp;&lt;span style=&quot;background-color: initial;&quot;&gt;Setup&lt;/span&gt;&lt;/p&gt;" style="verticalAlign=middle;align=center;overflow=fill;fontSize=12;fontFamily=Helvetica;html=1;rounded=1;fontStyle=1;strokeWidth=3;fillColor=#E6FFCC" parent="1" vertex="1">
          <mxGeometry x="560" y="241" width="110" height="90" as="geometry" />
        </mxCell>
        <mxCell id="0EiWsD7YYBJB4MSZuBvv-80" style="edgeStyle=orthogonalEdgeStyle;rounded=0;orthogonalLoop=1;jettySize=auto;html=1;exitX=0.5;exitY=1;exitDx=0;exitDy=0;" edge="1" parent="1" source="12" target="7">
          <mxGeometry relative="1" as="geometry" />
        </mxCell>
        <mxCell id="12" value="ADMIN" style="whiteSpace=wrap;align=center;verticalAlign=middle;fontStyle=1;strokeWidth=3;fillColor=#FFFFCC" parent="1" vertex="1">
          <mxGeometry x="691" y="60.00000000000002" width="90" height="60" as="geometry" />
        </mxCell>
        <mxCell id="62" value="Uses" style="text;spacingTop=-5;align=center" parent="1" vertex="1">
          <mxGeometry x="1280" y="287" width="30" height="24" as="geometry" />
        </mxCell>
        <mxCell id="73" value="" style="edgeStyle=elbowEdgeStyle;elbow=vertical;strokeColor=#990000;strokeWidth=2" parent="1" source="7" target="5" edge="1">
          <mxGeometry width="100" height="100" relative="1" as="geometry">
            <mxPoint x="460" y="500" as="sourcePoint" />
            <mxPoint x="560" y="400" as="targetPoint" />
            <Array as="points" />
          </mxGeometry>
        </mxCell>
        <mxCell id="GQEIz0DpZ-lxtKbZ7wda-96" value="USER" style="whiteSpace=wrap;align=center;verticalAlign=middle;fontStyle=1;strokeWidth=3;fillColor=#FFFFCC" parent="1" vertex="1">
          <mxGeometry x="1107.5" y="296" width="90" height="60" as="geometry" />
        </mxCell>
        <mxCell id="GQEIz0DpZ-lxtKbZ7wda-97" value="&lt;b&gt;&lt;font style=&quot;font-size: 20px;&quot;&gt;DFD LEVEl-0&lt;/font&gt;&lt;/b&gt;" style="text;strokeColor=none;align=center;fillColor=none;html=1;verticalAlign=middle;whiteSpace=wrap;rounded=0;" parent="1" vertex="1">
          <mxGeometry x="1402.5" y="191" width="175" height="30" as="geometry" />
        </mxCell>
        <mxCell id="GQEIz0DpZ-lxtKbZ7wda-98" value="EXPERT" style="whiteSpace=wrap;align=center;verticalAlign=middle;fontStyle=1;strokeWidth=3;fillColor=#FFFFCC" parent="1" vertex="1">
          <mxGeometry x="1445" y="525" width="90" height="60" as="geometry" />
        </mxCell>
        <mxCell id="GQEIz0DpZ-lxtKbZ7wda-99" value="ADMIN" style="whiteSpace=wrap;align=center;verticalAlign=middle;fontStyle=1;strokeWidth=3;fillColor=#FFFFCC" parent="1" vertex="1">
          <mxGeometry x="1790" y="296" width="90" height="60" as="geometry" />
        </mxCell>
        <mxCell id="GQEIz0DpZ-lxtKbZ7wda-102" value="&lt;p style=&quot;margin: 4px 0px 0px; font-size: 14px;&quot;&gt;&lt;font style=&quot;font-size: 14px;&quot;&gt;&lt;br&gt;&lt;/font&gt;&lt;/p&gt;&lt;p style=&quot;margin: 4px 0px 0px; font-size: 14px;&quot;&gt;&lt;font style=&quot;font-size: 14px;&quot;&gt;INTERVIEW&amp;nbsp;&lt;/font&gt;&lt;/p&gt;&lt;p style=&quot;margin: 4px 0px 0px; font-size: 14px;&quot;&gt;&lt;font style=&quot;font-size: 14px;&quot;&gt;PREPARATION&amp;nbsp;&lt;/font&gt;&lt;/p&gt;&lt;p style=&quot;margin: 4px 0px 0px; font-size: 14px;&quot;&gt;&lt;font style=&quot;font-size: 14px;&quot;&gt;APPLICATION&lt;/font&gt;&lt;/p&gt;" style="verticalAlign=middle;align=center;overflow=fill;fontSize=12;fontFamily=Helvetica;html=1;rounded=1;fontStyle=1;strokeWidth=3;fillColor=#E6FFCC" parent="1" vertex="1">
          <mxGeometry x="1410" y="271" width="160" height="110" as="geometry" />
        </mxCell>
        <mxCell id="GQEIz0DpZ-lxtKbZ7wda-103" value="" style="edgeStyle=elbowEdgeStyle;elbow=horizontal;strokeColor=#990000;strokeWidth=2;entryX=-0.043;entryY=0.403;entryDx=0;entryDy=0;entryPerimeter=0;" parent="1" edge="1">
          <mxGeometry width="100" height="100" relative="1" as="geometry">
            <mxPoint x="1197.5" y="319.73" as="sourcePoint" />
            <mxPoint x="1412.7700000000004" y="316" as="targetPoint" />
            <Array as="points">
              <mxPoint x="1197.5" y="364.73" />
            </Array>
          </mxGeometry>
        </mxCell>
        <mxCell id="GQEIz0DpZ-lxtKbZ7wda-106" value="" style="edgeStyle=elbowEdgeStyle;elbow=vertical;strokeColor=#990000;strokeWidth=2;entryX=1;entryY=0.75;entryDx=0;entryDy=0;" parent="1" target="GQEIz0DpZ-lxtKbZ7wda-96" edge="1">
          <mxGeometry width="100" height="100" relative="1" as="geometry">
            <mxPoint x="1410" y="341" as="sourcePoint" />
            <mxPoint x="1330" y="341" as="targetPoint" />
            <Array as="points">
              <mxPoint x="1379" y="341" />
            </Array>
          </mxGeometry>
        </mxCell>
        <mxCell id="GQEIz0DpZ-lxtKbZ7wda-107" value="Provide Information&#xa;" style="text;spacingTop=-5;align=center" parent="1" vertex="1">
          <mxGeometry x="1280" y="347" width="30" height="24" as="geometry" />
        </mxCell>
        <mxCell id="GQEIz0DpZ-lxtKbZ7wda-108" value="" style="edgeStyle=elbowEdgeStyle;elbow=horizontal;strokeColor=#990000;strokeWidth=2;entryX=0;entryY=0.5;entryDx=0;entryDy=0;exitX=0;exitY=0.5;exitDx=0;exitDy=0;" parent="1" target="GQEIz0DpZ-lxtKbZ7wda-99" edge="1">
          <mxGeometry width="100" height="100" relative="1" as="geometry">
            <mxPoint x="1570" y="324.55" as="sourcePoint" />
            <mxPoint x="1785.2700000000004" y="320.82" as="targetPoint" />
            <Array as="points">
              <mxPoint x="1570" y="369.55" />
            </Array>
          </mxGeometry>
        </mxCell>
        <mxCell id="GQEIz0DpZ-lxtKbZ7wda-109" value="" style="edgeStyle=elbowEdgeStyle;elbow=vertical;strokeColor=#990000;strokeWidth=2;entryX=1;entryY=0.75;entryDx=0;entryDy=0;exitX=0;exitY=0.75;exitDx=0;exitDy=0;" parent="1" source="GQEIz0DpZ-lxtKbZ7wda-99" edge="1">
          <mxGeometry width="100" height="100" relative="1" as="geometry">
            <mxPoint x="1782.5" y="345.82" as="sourcePoint" />
            <mxPoint x="1570.5" y="345.82" as="targetPoint" />
            <Array as="points">
              <mxPoint x="1751.5" y="345.82" />
            </Array>
          </mxGeometry>
        </mxCell>
        <mxCell id="GQEIz0DpZ-lxtKbZ7wda-110" value="Send Request" style="text;spacingTop=-5;align=center" parent="1" vertex="1">
          <mxGeometry x="1670" y="296" width="30" height="24" as="geometry" />
        </mxCell>
        <mxCell id="GQEIz0DpZ-lxtKbZ7wda-112" value="Manages" style="text;spacingTop=-5;align=center" parent="1" vertex="1">
          <mxGeometry x="1670" y="356" width="30" height="24" as="geometry" />
        </mxCell>
        <mxCell id="GQEIz0DpZ-lxtKbZ7wda-113" value="" style="edgeStyle=elbowEdgeStyle;elbow=horizontal;strokeColor=#990000;strokeWidth=2" parent="1" edge="1">
          <mxGeometry width="100" height="100" relative="1" as="geometry">
            <mxPoint x="1470.18" y="524" as="sourcePoint" />
            <mxPoint x="1470.003529411765" y="380" as="targetPoint" />
          </mxGeometry>
        </mxCell>
        <mxCell id="GQEIz0DpZ-lxtKbZ7wda-115" value="" style="edgeStyle=elbowEdgeStyle;elbow=horizontal;strokeColor=#990000;strokeWidth=2" parent="1" edge="1">
          <mxGeometry width="100" height="100" relative="1" as="geometry">
            <mxPoint x="1500" y="380" as="sourcePoint" />
            <mxPoint x="1500" y="524" as="targetPoint" />
          </mxGeometry>
        </mxCell>
        <mxCell id="GQEIz0DpZ-lxtKbZ7wda-116" value="Facilitate Interaction&#xa; " style="text;spacingTop=-5;align=center" parent="1" vertex="1">
          <mxGeometry x="1547.5" y="451" width="30" height="24" as="geometry" />
        </mxCell>
        <mxCell id="GQEIz0DpZ-lxtKbZ7wda-118" value="Participate" style="text;spacingTop=-5;align=center" parent="1" vertex="1">
          <mxGeometry x="1410" y="451" width="30" height="24" as="geometry" />
        </mxCell>
        <mxCell id="0EiWsD7YYBJB4MSZuBvv-73" value="Manages" style="text;spacingTop=-5;align=center" vertex="1" parent="1">
          <mxGeometry x="630" y="417" width="30" height="24" as="geometry" />
        </mxCell>
        <mxCell id="0EiWsD7YYBJB4MSZuBvv-74" value="&lt;p style=&quot;margin: 0px; margin-top: 4px; text-align: center; text-decoration: underline;&quot;&gt;&lt;strong&gt;&lt;strong&gt;Process&lt;/strong&gt;&amp;nbsp;5&lt;br&gt;&lt;/strong&gt;&lt;/p&gt;&lt;hr&gt;&lt;p style=&quot;margin: 0px; margin-left: 8px;&quot;&gt;Question Bank&lt;/p&gt;" style="verticalAlign=middle;align=center;overflow=fill;fontSize=12;fontFamily=Helvetica;html=1;rounded=1;fontStyle=1;strokeWidth=3;fillColor=#E6FFCC" vertex="1" parent="1">
          <mxGeometry x="520" y="495" width="110" height="90" as="geometry" />
        </mxCell>
        <mxCell id="0EiWsD7YYBJB4MSZuBvv-75" value="&lt;p style=&quot;margin: 0px; margin-top: 4px; text-align: center; text-decoration: underline;&quot;&gt;&lt;strong&gt;&lt;strong&gt;Process&lt;/strong&gt;&amp;nbsp;6&lt;br&gt;&lt;/strong&gt;&lt;/p&gt;&lt;hr&gt;&lt;p style=&quot;margin: 0px; margin-left: 8px;&quot;&gt;Expert&amp;nbsp;&lt;/p&gt;&lt;p style=&quot;margin: 0px; margin-left: 8px;&quot;&gt;Interaction&lt;/p&gt;" style="verticalAlign=middle;align=center;overflow=fill;fontSize=12;fontFamily=Helvetica;html=1;rounded=1;fontStyle=1;strokeWidth=3;fillColor=#E6FFCC" vertex="1" parent="1">
          <mxGeometry x="440" y="45" width="110" height="90" as="geometry" />
        </mxCell>
        <mxCell id="0EiWsD7YYBJB4MSZuBvv-76" value="&lt;p style=&quot;margin: 0px; margin-top: 4px; text-align: center; text-decoration: underline;&quot;&gt;&lt;strong&gt;&lt;strong&gt;Process&lt;/strong&gt;&amp;nbsp;7&lt;br&gt;&lt;/strong&gt;&lt;/p&gt;&lt;hr&gt;&lt;p style=&quot;margin: 0px; margin-left: 8px;&quot;&gt;Community&lt;/p&gt;&lt;p style=&quot;margin: 0px; margin-left: 8px;&quot;&gt;Engagement&lt;/p&gt;&lt;p style=&quot;margin: 0px; margin-left: 8px;&quot;&gt;&lt;br&gt;&lt;/p&gt;" style="verticalAlign=middle;align=center;overflow=fill;fontSize=12;fontFamily=Helvetica;html=1;rounded=1;fontStyle=1;strokeWidth=3;fillColor=#E6FFCC" vertex="1" parent="1">
          <mxGeometry x="320" y="495" width="110" height="90" as="geometry" />
        </mxCell>
        <mxCell id="0EiWsD7YYBJB4MSZuBvv-77" value="&lt;p style=&quot;margin: 0px; margin-top: 4px; text-align: center; text-decoration: underline;&quot;&gt;&lt;strong&gt;&lt;strong&gt;Process&lt;/strong&gt;&amp;nbsp;8&lt;br&gt;&lt;/strong&gt;&lt;/p&gt;&lt;hr&gt;&lt;p style=&quot;margin: 0px; margin-left: 8px;&quot;&gt;Mock&lt;/p&gt;&lt;p style=&quot;margin: 0px; margin-left: 8px;&quot;&gt;Interview&lt;/p&gt;&lt;p style=&quot;margin: 0px; margin-left: 8px;&quot;&gt;&lt;br&gt;&lt;/p&gt;" style="verticalAlign=middle;align=center;overflow=fill;fontSize=12;fontFamily=Helvetica;html=1;rounded=1;fontStyle=1;strokeWidth=3;fillColor=#E6FFCC" vertex="1" parent="1">
          <mxGeometry x="160" y="495" width="110" height="90" as="geometry" />
        </mxCell>
        <mxCell id="0EiWsD7YYBJB4MSZuBvv-78" value="&lt;p style=&quot;margin: 0px; margin-top: 4px; text-align: center; text-decoration: underline;&quot;&gt;&lt;strong&gt;&lt;strong&gt;Process&lt;/strong&gt;&amp;nbsp;9&lt;br&gt;&lt;/strong&gt;&lt;/p&gt;&lt;hr&gt;&lt;p style=&quot;margin: 0px; margin-left: 8px;&quot;&gt;Expert&amp;nbsp;&lt;/p&gt;&lt;p style=&quot;margin: 0px; margin-left: 8px;&quot;&gt;Contribution&lt;/p&gt;&lt;p style=&quot;margin: 0px; margin-left: 8px;&quot;&gt;&lt;br&gt;&lt;/p&gt;" style="verticalAlign=middle;align=center;overflow=fill;fontSize=12;fontFamily=Helvetica;html=1;rounded=1;fontStyle=1;strokeWidth=3;fillColor=#E6FFCC" vertex="1" parent="1">
          <mxGeometry x="40" y="385" width="110" height="90" as="geometry" />
        </mxCell>
      </root>
    </mxGraphModel>
  </diagram>
</mxfile>
